<?xml version="1.0" encoding="utf-8"?>
<!-- Generator: Adobe Illustrator 24.0.2, SVG Export Plug-In . SVG Version: 6.00 Build 0)  -->
<svg version="1.1" id="Layer_1" xmlns="http://www.w3.org/2000/svg" xmlns:xlink="http://www.w3.org/1999/xlink" x="0px" y="0px"
	 viewBox="0 0 24 24" style="enable-background:new 0 0 24 24;" xml:space="preserve">
<style type="text/css">
	.st0{fill:#FFFFFF;}
</style>
<path class="st0" d="M19,9.1c0,0-5.2-0.3-7,1.9c2-4.9,7-5.9,7-5.9v-2l5,4l-5,4C19,11.1,19,9.1,19,9.1z M0,24H24L12,12.4
	C12,12.4,0,24,0,24z M1.7,10L12,2.5L15,4.7c0.7-0.5,1.4-0.8,2-1.1L12,0L0,8.8v12.5l7.4-7.1C7.4,14.1,1.7,10,1.7,10z M17.5,14.9
	l6.5,6.3V9.6C24,9.6,17.5,14.9,17.5,14.9z"/>
</svg>
