<?xml version="1.0" encoding="utf-8"?>
<!-- Generator: Adobe Illustrator 24.0.2, SVG Export Plug-In . SVG Version: 6.00 Build 0)  -->
<svg version="1.1" id="Layer_1" xmlns="http://www.w3.org/2000/svg" xmlns:xlink="http://www.w3.org/1999/xlink" x="0px" y="0px"
	 viewBox="0 0 24 24" style="enable-background:new 0 0 24 24;" xml:space="preserve">
<style type="text/css">
	.st0{fill:#FFFFFF;}
</style>
<path class="st0" d="M13.1,6L16,2.6L15.2,2L12,5.8L8.8,2L8,2.6L10.9,6H0v16h24V6H13.1z M21,20H3V8h18V20z M16.4,14.8
	c-1.2,1-2.5,1.5-4.4,1.5c-1.9,0-3.2-0.6-4.4-1.5l-0.4,0.4C8.1,16.5,9.8,18,12,18c2.2,0,3.9-1.5,4.8-2.9L16.4,14.8z M9.2,10
	C8.5,10,8,10.5,8,11.2s0.5,1.2,1.2,1.2c0.7,0,1.2-0.5,1.2-1.2S9.9,10,9.2,10z M14.8,10c-0.7,0-1.2,0.5-1.2,1.2s0.5,1.2,1.2,1.2
	c0.7,0,1.2-0.5,1.2-1.2S15.5,10,14.8,10z"/>
</svg>
