<?xml version="1.0" encoding="utf-8"?>
<!-- Generator: Adobe Illustrator 24.0.2, SVG Export Plug-In . SVG Version: 6.00 Build 0)  -->
<svg version="1.1" id="Layer_1" xmlns="http://www.w3.org/2000/svg" xmlns:xlink="http://www.w3.org/1999/xlink" x="0px" y="0px"
	 viewBox="0 0 24 24" style="enable-background:new 0 0 24 24;" xml:space="preserve">
<style type="text/css">
	.st0{fill:#FFFFFF;}
</style>
<path class="st0" d="M7,15h13v1H7V15z M11,11v3h5v-3H11z M10,11H7v1h3V11z M7,14h3v-1H7V14z M20,13h-3v1h3V13z M13,6.4V6h-1.2v2h1.3
	V7.6h-0.8V7.2H13V6.8h-0.7V6.4H13z M14.4,6.7L14.7,8h0.5l0.5-2h-0.5L15,7.4L14.7,6h-0.5L14,7.4L13.7,6h-0.5l0.5,2h0.5L14.4,6.7z
	 M16.3,7.6c-0.1,0-0.3,0-0.5-0.1l0,0l-0.1,0.4l0,0c0.2,0,0.4,0.1,0.6,0.1c0.6,0,0.8-0.3,0.8-0.6c0-0.3-0.2-0.5-0.5-0.6
	s-0.3-0.1-0.3-0.2s0.1-0.2,0.3-0.2c0.1,0,0.3,0,0.4,0.1l0,0l0-0.4l0,0C16.9,6,16.7,6,16.5,6c-0.4,0-0.7,0.2-0.7,0.6
	c0,0.3,0.2,0.5,0.5,0.6c0.2,0.1,0.3,0.1,0.3,0.2C16.6,7.5,16.5,7.6,16.3,7.6z M11,8h0.5V6h-0.4v1.2L10.4,6H9.9v2h0.4V6.6L11,8z
	 M20,9H7v1h13V9z M20,11h-3v1h3V11z M3,2v17.2c0,0.8-1,0.8-1,0V4H0v16c0,1.1,0.9,2,2,2h20c1.1,0,2-0.9,2-2V2H3z M22,18H5V4h17V18z"
	/>
</svg>
